ffmpeg version 3.4.8-0ubuntu0.2 Copyright (c) 2000-2020 the FFmpeg developers
  built with gcc 7 (Ubuntu 7.5.0-3ubuntu1~18.04)
  configuration: --prefix=/usr --extra-version=0ubuntu0.2 --toolchain=hardened --libdir=/usr/lib/x86_64-linux-gnu --incdir=/usr/include/x86_64-linux-gnu --enable-gpl --disable-stripping --enable-avresample --enable-avisynth --enable-gnutls --enable-ladspa --enable-libass --enable-libbluray --enable-libbs2b --enable-libcaca --enable-libcdio --enable-libflite --enable-libfontconfig --enable-libfreetype --enable-libfribidi --enable-libgme --enable-libgsm --enable-libmp3lame --enable-libmysofa --enable-libopenjpeg --enable-libopenmpt --enable-libopus --enable-libpulse --enable-librubberband --enable-librsvg --enable-libshine --enable-libsnappy --enable-libsoxr --enable-libspeex --enable-libssh --enable-libtheora --enable-libtwolame --enable-libvorbis --enable-libvpx --enable-libwavpack --enable-libwebp --enable-libx265 --enable-libxml2 --enable-libxvid --enable-libzmq --enable-libzvbi --enable-omx --enable-openal --enable-opengl --enable-sdl2 --enable-libdc1394 --enable-libdrm --enable-libiec61883 --enable-chromaprint --enable-frei0r --enable-libopencv --enable-libx264 --enable-shared
  libavutil      55. 78.100 / 55. 78.100
  libavcodec     57.107.100 / 57.107.100
  libavformat    57. 83.100 / 57. 83.100
  libavdevice    57. 10.100 / 57. 10.100
  libavfilter     6.107.100 /  6.107.100
  libavresample   3.  7.  0 /  3.  7.  0
  libswscale      4.  8.100 /  4.  8.100
  libswresample   2.  9.100 /  2.  9.100
  libpostproc    54.  7.100 / 54.  7.100
Input #0, mpeg, from '../.././Samples/BP_Parade_X_FINAL_Video-Thl.mpeg':
  Duration: 00:03:38.78, start: 0.220000, bitrate: 2103 kb/s
    Stream #0:0[0x1e0]: Video: mpeg2video (Main), yuv420p(tv, top first), 480x576 [SAR 8:5 DAR 4:3], 25 fps, 25 tbr, 90k tbn, 50 tbc
    Stream #0:1[0x1c0]: Audio: mp2, 44100 Hz, stereo, s16p, 224 kb/s
Stream mapping:
  Stream #0:0 -> #0:0 (mpeg2video (native) -> h264 (libx264))
  Stream #0:1 -> #0:1 (mp2 (native) -> aac (native))
Press [q] to stop, [?] for help
[libx264 @ 0x5603e69a6800] using SAR=8/5
[libx264 @ 0x5603e69a6800] using cpu capabilities: MMX2 SSE2Fast SSSE3 SSE4.2 AVX FMA3 BMI2 AVX2
[libx264 @ 0x5603e69a6800] profile High, level 3.0
[libx264 @ 0x5603e69a6800] 264 - core 152 r2854 e9a5903 - H.264/MPEG-4 AVC codec - Copyleft 2003-2017 - http://www.videolan.org/x264.html - options: cabac=1 ref=3 deblock=1:0:0 analyse=0x3:0x113 me=hex subme=7 psy=1 psy_rd=1.00:0.00 mixed_ref=1 me_range=16 chroma_me=1 trellis=1 8x8dct=1 cqm=0 deadzone=21,11 fast_pskip=1 chroma_qp_offset=-2 threads=6 lookahead_threads=1 sliced_threads=0 nr=0 decimate=1 interlaced=0 bluray_compat=0 constrained_intra=0 bframes=3 b_pyramid=2 b_adapt=1 b_bias=0 direct=1 weightb=1 open_gop=0 weightp=2 keyint=250 keyint_min=25 scenecut=40 intra_refresh=0 rc_lookahead=40 rc=crf mbtree=1 crf=23.0 qcomp=0.60 qpmin=0 qpmax=69 qpstep=4 ip_ratio=1.40 aq=1:1.00
Output #0, mov, to '/home/aleksandr/Pract/Samples/BP_Parade_X_FINAL_Video-Thl.mpeg_tc/output_tc1.mov':
  Metadata:
    encoder         : Lavf57.83.100
    Stream #0:0: Video: h264 (libx264) (avc1 / 0x31637661), yuv420p(top coded first (swapped)), 480x576 [SAR 8:5 DAR 4:3], q=-1--1, 25 fps, 12800 tbn, 25 tbc
    Metadata:
      encoder         : Lavc57.107.100 libx264
    Side data:
      cpb: bitrate max/min/avg: 0/0/0 buffer size: 0 vbv_delay: -1
    Stream #0:1: Audio: aac (LC) (mp4a / 0x6134706D), 44100 Hz, stereo, fltp, 128 kb/s
    Metadata:
      encoder         : Lavc57.107.100 aac
frame=   80 fps=0.0 q=28.0 size=     256kB time=00:00:02.76 bitrate= 759.1kbits/s speed=5.52x    frame=  127 fps=127 q=28.0 size=     768kB time=00:00:04.59 bitrate=1368.5kbits/s speed=4.59x    frame=  162 fps=108 q=28.0 size=    1024kB time=00:00:06.03 bitrate=1389.5kbits/s speed=4.02x    frame=  201 fps=100 q=28.0 size=    1536kB time=00:00:07.56 bitrate=1662.3kbits/s speed=3.77x    frame=  237 fps= 94 q=28.0 size=    1792kB time=00:00:09.03 bitrate=1625.3kbits/s speed=3.59x    frame=  275 fps= 91 q=28.0 size=    2304kB time=00:00:10.51 bitrate=1794.4kbits/s speed=3.47x    frame=  313 fps= 88 q=28.0 size=    2816kB time=00:00:12.07 bitrate=1910.6kbits/s speed=3.41x    frame=  351 fps= 87 q=28.0 size=    3072kB time=00:00:13.56 bitrate=1855.8kbits/s speed=3.34x    frame=  392 fps= 86 q=28.0 size=    3584kB time=00:00:15.16 bitrate=1936.4kbits/s speed=3.33x    frame=  428 fps= 84 q=28.0 size=    3840kB time=00:00:16.62 bitrate=1892.1kbits/s speed=3.28x    frame=  463 fps= 83 q=28.0 size=    4352kB time=00:00:18.01 bitrate=1978.6kbits/s speed=3.23x    frame=  498 fps= 82 q=28.0 size=    4608kB time=00:00:19.43 bitrate=1942.3kbits/s speed=3.19x    frame=  527 fps= 80 q=28.0 size=    4864kB time=00:00:20.57 bitrate=1936.8kbits/s speed=3.12x    frame=  562 fps= 79 q=28.0 size=    5376kB time=00:00:21.98 bitrate=2002.8kbits/s speed=3.09x    frame=  598 fps= 78 q=28.0 size=    5632kB time=00:00:23.45 bitrate=1967.3kbits/s speed=3.07x    frame=  639 fps= 78 q=28.0 size=    6144kB time=00:00:25.07 bitrate=2007.1kbits/s speed=3.07x    frame=  672 fps= 78 q=28.0 size=    6400kB time=00:00:26.40 bitrate=1985.9kbits/s speed=3.05x    frame=  711 fps= 78 q=28.0 size=    6912kB time=00:00:27.95 bitrate=2025.4kbits/s speed=3.05x    frame=  748 fps= 77 q=28.0 size=    7424kB time=00:00:29.51 bitrate=2060.7kbits/s speed=3.05x    frame=  788 fps= 77 q=28.0 size=    7936kB time=00:00:31.09 bitrate=2091.0kbits/s speed=3.05x    frame=  828 fps= 77 q=28.0 size=    8192kB time=00:00:32.60 bitrate=2058.5kbits/s speed=3.05x    frame=  858 fps= 77 q=28.0 size=    8448kB time=00:00:33.85 bitrate=2044.2kbits/s speed=3.02x    frame=  895 fps= 76 q=28.0 size=    8960kB time=00:00:35.31 bitrate=2078.3kbits/s speed=3.02x    frame=  930 fps= 76 q=28.0 size=    9216kB time=00:00:36.78 bitrate=2052.7kbits/s speed=3.01x    frame=  965 fps= 76 q=28.0 size=    9472kB time=00:00:38.10 bitrate=2036.4kbits/s speed=   3x    frame= 1006 fps= 76 q=28.0 size=    9984kB time=00:00:39.72 bitrate=2058.7kbits/s speed=   3x    frame= 1058 fps= 77 q=28.0 size=   10240kB time=00:00:41.79 bitrate=2007.0kbits/s speed=3.05x    frame= 1126 fps= 79 q=28.0 size=   10496kB time=00:00:44.55 bitrate=1929.7kbits/s speed=3.13x    frame= 1169 fps= 79 q=28.0 size=   11008kB time=00:00:46.37 bitrate=1944.7kbits/s speed=3.15x    frame= 1205 fps= 79 q=28.0 size=   11264kB time=00:00:47.69 bitrate=1934.7kbits/s speed=3.13x    frame= 1243 fps= 79 q=28.0 size=   11776kB time=00:00:49.22 bitrate=1959.7kbits/s speed=3.13x    frame= 1276 fps= 79 q=28.0 size=   12032kB time=00:00:50.57 bitrate=1949.0kbits/s speed=3.11x    frame= 1311 fps= 78 q=28.0 size=   12544kB time=00:00:51.91 bitrate=1979.2kbits/s speed= 3.1x    frame= 1341 fps= 78 q=28.0 size=   12800kB time=00:00:53.19 bitrate=1971.1kbits/s speed=3.08x    frame= 1378 fps= 78 q=28.0 size=   13312kB time=00:00:54.72 bitrate=1992.6kbits/s speed=3.08x    frame= 1417 fps= 78 q=28.0 size=   13568kB time=00:00:56.21 bitrate=1977.2kbits/s speed=3.08x    frame= 1452 fps= 77 q=28.0 size=   14080kB time=00:00:57.67 bitrate=1999.8kbits/s speed=3.07x    frame= 1489 fps= 77 q=28.0 size=   14336kB time=00:00:59.09 bitrate=1987.3kbits/s speed=3.06x    frame= 1534 fps= 77 q=28.0 size=   14848kB time=00:01:00.88 bitrate=1997.9kbits/s speed=3.07x    frame= 1575 fps= 77 q=28.0 size=   15104kB time=00:01:02.53 bitrate=1978.7kbits/s speed=3.07x    frame= 1610 fps= 77 q=28.0 size=   15616kB time=00:01:03.92 bitrate=2001.2kbits/s speed=3.07x    frame= 1647 fps= 77 q=25.0 size=   15872kB time=00:01:05.38 bitrate=1988.5kbits/s speed=3.06x    frame= 1685 fps= 77 q=28.0 size=   16384kB time=00:01:06.91 bitrate=2005.7kbits/s speed=3.06x    frame= 1722 fps= 77 q=28.0 size=   16640kB time=00:01:08.40 bitrate=1992.7kbits/s speed=3.05x    frame= 1757 fps= 77 q=28.0 size=   17152kB time=00:01:09.79 bitrate=2013.1kbits/s speed=3.04x    frame= 1784 fps= 76 q=28.0 size=   17408kB time=00:01:10.86 bitrate=2012.3kbits/s speed=3.02x    frame= 1811 fps= 75 q=28.0 size=   17664kB time=00:01:11.91 bitrate=2012.2kbits/s speed=   3x    frame= 1845 fps= 75 q=28.0 size=   18176kB time=00:01:13.30 bitrate=2031.2kbits/s speed=2.99x    frame= 1880 fps= 75 q=28.0 size=   18432kB time=00:01:14.72 bitrate=2020.8kbits/s speed=2.99x    frame= 1919 fps= 75 q=28.0 size=   18944kB time=00:01:16.25 bitrate=2035.2kbits/s speed=2.99x    frame= 1951 fps= 75 q=28.0 size=   19456kB time=00:01:17.57 bitrate=2054.5kbits/s speed=2.98x    frame= 1986 fps= 75 q=28.0 size=   19712kB time=00:01:18.97 bitrate=2044.8kbits/s speed=2.98x    frame= 2022 fps= 75 q=28.0 size=   20224kB time=00:01:20.43 bitrate=2059.8kbits/s speed=2.97x    frame= 2064 fps= 75 q=28.0 size=   20480kB time=00:01:22.08 bitrate=2043.9kbits/s speed=2.98x    frame= 2099 fps= 75 q=28.0 size=   20992kB time=00:01:23.45 bitrate=2060.7kbits/s speed=2.97x    frame= 2134 fps= 75 q=28.0 size=   21504kB time=00:01:24.86 bitrate=2075.7kbits/s speed=2.97x    frame= 2165 fps= 74 q=28.0 size=   21760kB time=00:01:26.09 bitrate=2070.4kbits/s speed=2.96x    frame= 2197 fps= 74 q=28.0 size=   22016kB time=00:01:27.39 bitrate=2063.6kbits/s speed=2.95x    frame= 2232 fps= 74 q=28.0 size=   22528kB time=00:01:28.86 bitrate=2076.8kbits/s speed=2.95x    frame= 2268 fps= 74 q=28.0 size=   22784kB time=00:01:30.27 bitrate=2067.4kbits/s speed=2.95x    frame= 2306 fps= 74 q=28.0 size=   23296kB time=00:01:31.74 bitrate=2080.2kbits/s speed=2.95x    frame= 2338 fps= 74 q=28.0 size=   23552kB time=00:01:33.06 bitrate=2073.1kbits/s speed=2.94x    frame= 2372 fps= 74 q=28.0 size=   24064kB time=00:01:34.43 bitrate=2087.5kbits/s speed=2.94x    frame= 2403 fps= 74 q=28.0 size=   24320kB time=00:01:35.57 bitrate=2084.6kbits/s speed=2.93x    frame= 2422 fps= 73 q=28.0 size=   24576kB time=00:01:36.40 bitrate=2088.3kbits/s speed=2.91x    frame= 2451 fps= 73 q=28.0 size=   24832kB time=00:01:37.57 bitrate=2084.9kbits/s speed= 2.9x    frame= 2484 fps= 73 q=28.0 size=   25344kB time=00:01:38.87 bitrate=2099.9kbits/s speed=2.89x    frame= 2517 fps= 72 q=28.0 size=   25600kB time=00:01:40.17 bitrate=2093.6kbits/s speed=2.88x    frame= 2553 fps= 72 q=28.0 size=   26112kB time=00:01:41.65 bitrate=2104.2kbits/s speed=2.89x    frame= 2592 fps= 72 q=28.0 size=   26368kB time=00:01:43.23 bitrate=2092.4kbits/s speed=2.89x    frame= 2627 fps= 72 q=28.0 size=   26880kB time=00:01:44.60 bitrate=2105.1kbits/s speed=2.88x    frame= 2666 fps= 72 q=28.0 size=   27136kB time=00:01:46.18 bitrate=2093.5kbits/s speed=2.89x    frame= 2700 fps= 72 q=28.0 size=   27648kB time=00:01:47.57 bitrate=2105.4kbits/s speed=2.88x    frame= 2732 fps= 72 q=28.0 size=   27904kB time=00:01:48.76 bitrate=2101.7kbits/s speed=2.88x    frame= 2770 fps= 72 q=28.0 size=   28416kB time=00:01:50.41 bitrate=2108.3kbits/s speed=2.88x    frame= 2817 fps= 73 q=28.0 size=   28672kB time=00:01:52.29 bitrate=2091.7kbits/s speed=2.89x    frame= 2853 fps= 73 q=28.0 size=   29184kB time=00:01:53.63 bitrate=2103.8kbits/s speed=2.89x    frame= 2891 fps= 73 q=28.0 size=   29440kB time=00:01:55.14 bitrate=2094.5kbits/s speed=2.89x    frame= 2927 fps= 73 q=28.0 size=   29952kB time=00:01:56.65 bitrate=2103.3kbits/s speed=2.89x    frame= 2961 fps= 72 q=28.0 size=   30208kB time=00:01:57.93 bitrate=2098.3kbits/s speed=2.89x    frame= 2996 fps= 72 q=28.0 size=   30720kB time=00:01:59.35 bitrate=2108.6kbits/s speed=2.89x    frame= 3034 fps= 73 q=28.0 size=   31232kB time=00:02:00.88 bitrate=2116.5kbits/s speed=2.89x    frame= 3069 fps= 72 q=28.0 size=   31488kB time=00:02:02.29 bitrate=2109.2kbits/s speed=2.89x    frame= 3106 fps= 72 q=28.0 size=   32000kB time=00:02:03.76 bitrate=2118.1kbits/s speed=2.89x    frame= 3139 fps= 72 q=28.0 size=   32256kB time=00:02:05.06 bitrate=2112.9kbits/s speed=2.88x    frame= 3172 fps= 72 q=28.0 size=   32768kB time=00:02:06.40 bitrate=2123.5kbits/s speed=2.88x    frame= 3206 fps= 72 q=28.0 size=   33024kB time=00:02:07.77 bitrate=2117.2kbits/s speed=2.88x    frame= 3236 fps= 72 q=28.0 size=   33280kB time=00:02:08.96 bitrate=2114.0kbits/s speed=2.87x    frame= 3275 fps= 72 q=28.0 size=   33792kB time=00:02:10.61 bitrate=2119.4kbits/s speed=2.88x    frame= 3312 fps= 72 q=28.0 size=   34048kB time=00:02:12.02 bitrate=2112.6kbits/s speed=2.88x    frame= 3348 fps= 72 q=28.0 size=   34560kB time=00:02:13.51 bitrate=2120.5kbits/s speed=2.88x    frame= 3387 fps= 72 q=28.0 size=   34816kB time=00:02:15.00 bitrate=2112.7kbits/s speed=2.88x    frame= 3434 fps= 72 q=28.0 size=   35328kB time=00:02:16.85 bitrate=2114.6kbits/s speed=2.89x    frame= 3479 fps= 73 q=28.0 size=   35840kB time=00:02:18.64 bitrate=2117.6kbits/s speed=2.89x    frame= 3528 fps= 73 q=25.0 size=   36096kB time=00:02:20.62 bitrate=2102.8kbits/s speed= 2.9x    frame= 3568 fps= 73 q=28.0 size=   36352kB time=00:02:22.26 bitrate=2093.2kbits/s speed=2.91x    frame= 3617 fps= 73 q=28.0 size=   36864kB time=00:02:24.28 bitrate=2093.0kbits/s speed=2.92x    frame= 3657 fps= 73 q=28.0 size=   37120kB time=00:02:25.82 bitrate=2085.3kbits/s speed=2.92x    frame= 3694 fps= 73 q=28.0 size=   37632kB time=00:02:27.28 bitrate=2093.1kbits/s speed=2.92x    frame= 3730 fps= 73 q=28.0 size=   37888kB time=00:02:28.74 bitrate=2086.6kbits/s speed=2.92x    frame= 3770 fps= 73 q=28.0 size=   38400kB time=00:02:30.30 bitrate=2092.9kbits/s speed=2.92x    frame= 3811 fps= 73 q=28.0 size=   38656kB time=00:02:31.95 bitrate=2084.0kbits/s speed=2.92x    frame= 3857 fps= 73 q=28.0 size=   39168kB time=00:02:33.80 bitrate=2086.1kbits/s speed=2.93x    frame= 3903 fps= 74 q=28.0 size=   39424kB time=00:02:35.64 bitrate=2075.0kbits/s speed=2.94x    frame= 3950 fps= 74 q=28.0 size=   39680kB time=00:02:37.47 bitrate=2064.2kbits/s speed=2.94x    frame= 4001 fps= 74 q=28.0 size=   40192kB time=00:02:39.56 bitrate=2063.4kbits/s speed=2.95x    frame= 4050 fps= 74 q=28.0 size=   40448kB time=00:02:41.56 bitrate=2050.9kbits/s speed=2.96x    frame= 4097 fps= 74 q=28.0 size=   40704kB time=00:02:43.39 bitrate=2040.7kbits/s speed=2.97x    frame= 4141 fps= 75 q=28.0 size=   40960kB time=00:02:45.14 bitrate=2031.9kbits/s speed=2.97x    frame= 4192 fps= 75 q=28.0 size=   41216kB time=00:02:47.18 bitrate=2019.6kbits/s speed=2.98x    frame= 4247 fps= 75 q=28.0 size=   41472kB time=00:02:49.36 bitrate=2005.9kbits/s speed=2.99x    frame= 4298 fps= 75 q=28.0 size=   41728kB time=00:02:51.43 bitrate=1994.0kbits/s speed=   3x    frame= 4355 fps= 76 q=28.0 size=   41984kB time=00:02:53.70 bitrate=1979.9kbits/s speed=3.02x    frame= 4411 fps= 76 q=28.0 size=   42240kB time=00:02:55.98 bitrate=1966.3kbits/s speed=3.03x    frame= 4463 fps= 76 q=28.0 size=   42496kB time=00:02:58.07 bitrate=1955.0kbits/s speed=3.04x    frame= 4517 fps= 76 q=28.0 size=   43008kB time=00:03:00.21 bitrate=1955.1kbits/s speed=3.05x    frame= 4574 fps= 77 q=28.0 size=   43264kB time=00:03:02.46 bitrate=1942.4kbits/s speed=3.06x    frame= 4627 fps= 77 q=28.0 size=   43520kB time=00:03:04.59 bitrate=1931.3kbits/s speed=3.07x    frame= 4663 fps= 77 q=28.0 size=   43520kB time=00:03:06.08 bitrate=1915.9kbits/s speed=3.06x    frame= 4702 fps= 77 q=28.0 size=   43776kB time=00:03:07.54 bitrate=1912.1kbits/s speed=3.06x    frame= 4755 fps= 77 q=28.0 size=   44288kB time=00:03:09.75 bitrate=1912.0kbits/s speed=3.07x    frame= 4812 fps= 77 q=28.0 size=   44544kB time=00:03:12.02 bitrate=1900.3kbits/s speed=3.09x    frame= 4867 fps= 78 q=28.0 size=   44544kB time=00:03:14.21 bitrate=1878.9kbits/s speed=3.09x    frame= 4913 fps= 78 q=28.0 size=   45056kB time=00:03:16.06 bitrate=1882.5kbits/s speed= 3.1x    frame= 4955 fps= 78 q=28.0 size=   45312kB time=00:03:17.71 bitrate=1877.4kbits/s speed= 3.1x    frame= 4990 fps= 78 q=28.0 size=   45824kB time=00:03:19.13 bitrate=1885.1kbits/s speed= 3.1x    frame= 5027 fps= 78 q=28.0 size=   46080kB time=00:03:20.59 bitrate=1881.8kbits/s speed= 3.1x    frame= 5069 fps= 78 q=25.0 size=   46592kB time=00:03:22.29 bitrate=1886.8kbits/s speed= 3.1x    frame= 5111 fps= 78 q=28.0 size=   46848kB time=00:03:23.96 bitrate=1881.6kbits/s speed= 3.1x    frame= 5147 fps= 78 q=28.0 size=   47360kB time=00:03:25.42 bitrate=1888.6kbits/s speed= 3.1x    frame= 5189 fps= 78 q=28.0 size=   47616kB time=00:03:27.05 bitrate=1883.9kbits/s speed= 3.1x    frame= 5233 fps= 78 q=28.0 size=   47872kB time=00:03:28.93 bitrate=1877.0kbits/s speed=3.11x    frame= 5277 fps= 78 q=25.0 size=   48128kB time=00:03:30.55 bitrate=1872.5kbits/s speed=3.11x    frame= 5326 fps= 78 q=28.0 size=   48640kB time=00:03:32.55 bitrate=1874.6kbits/s speed=3.11x    frame= 5385 fps= 78 q=28.0 size=   48896kB time=00:03:34.99 bitrate=1863.1kbits/s speed=3.13x    frame= 5453 fps= 79 q=28.0 size=   48896kB time=00:03:37.52 bitrate=1841.4kbits/s speed=3.14x    frame= 5468 fps= 78 q=-1.0 Lsize=   49393kB time=00:03:38.77 bitrate=1849.5kbits/s speed=3.14x    
video:45748kB audio:3477kB subtitle:0kB other streams:0kB global headers:0kB muxing overhead: 0.341518%
[libx264 @ 0x5603e69a6800] frame I:170   Avg QP:22.70  size: 15813
[libx264 @ 0x5603e69a6800] frame P:2083  Avg QP:25.49  size: 10535
[libx264 @ 0x5603e69a6800] frame B:3215  Avg QP:26.99  size:  6909
[libx264 @ 0x5603e69a6800] consecutive B-frames: 11.5%  7.3% 68.8% 12.4%
[libx264 @ 0x5603e69a6800] mb I  I16..4: 20.6% 75.1%  4.3%
[libx264 @ 0x5603e69a6800] mb P  I16..4: 13.0% 49.2%  1.4%  P16..4: 21.7%  5.8%  2.3%  0.0%  0.0%    skip: 6.7%
[libx264 @ 0x5603e69a6800] mb B  I16..4:  3.0% 14.4%  0.4%  B16..8: 45.8%  9.9%  2.1%  direct: 6.3%  skip:18.2%  L0:39.4% L1:38.4% BI:22.3%
[libx264 @ 0x5603e69a6800] 8x8 transform intra:78.2% inter:88.8%
[libx264 @ 0x5603e69a6800] coded y,uvDC,uvAC intra: 66.4% 74.0% 15.1% inter: 30.7% 31.1% 2.4%
[libx264 @ 0x5603e69a6800] i16 v,h,dc,p: 43% 28% 24%  6%
[libx264 @ 0x5603e69a6800] i8 v,h,dc,ddl,ddr,vr,hd,vl,hu: 27% 18% 38%  3%  2%  2%  1%  3%  5%
[libx264 @ 0x5603e69a6800] i4 v,h,dc,ddl,ddr,vr,hd,vl,hu: 29% 42% 11%  3%  3%  4%  3%  3%  3%
[libx264 @ 0x5603e69a6800] i8c dc,h,v,p: 45% 23% 28%  4%
[libx264 @ 0x5603e69a6800] Weighted P-Frames: Y:7.1% UV:4.0%
[libx264 @ 0x5603e69a6800] ref P L0: 68.0% 11.8% 12.7%  7.1%  0.4%
[libx264 @ 0x5603e69a6800] ref B L0: 78.5% 19.5%  2.0%
[libx264 @ 0x5603e69a6800] ref B L1: 99.3%  0.7%
[libx264 @ 0x5603e69a6800] kb/s:1713.43
[aac @ 0x5603e69a7700] Qavg: 933.082
	Command being timed: "/usr/bin/ffmpeg -i ../.././Samples/BP_Parade_X_FINAL_Video-Thl.mpeg -c:v libx264 -f mov /home/aleksandr/Pract/Samples/BP_Parade_X_FINAL_Video-Thl.mpeg_tc/output_tc1.mov"
	User time (seconds): 264.59
	System time (seconds): 1.09
	Percent of CPU this job got: 380%
	Elapsed (wall clock) time (h:mm:ss or m:ss): 1:09.88
	Average shared text size (kbytes): 0
	Average unshared data size (kbytes): 0
	Average stack size (kbytes): 0
	Average total size (kbytes): 0
	Maximum resident set size (kbytes): 130748
	Average resident set size (kbytes): 0
	Major (requiring I/O) page faults: 1
	Minor (reclaiming a frame) page faults: 25139
	Voluntary context switches: 69699
	Involuntary context switches: 64299
	Swaps: 0
	File system inputs: 112336
	File system outputs: 98880
	Socket messages sent: 0
	Socket messages received: 0
	Signals delivered: 0
	Page size (bytes): 4096
	Exit status: 0
